pedal_clip_forces.mot
version=1
nRows=100
nColumns=4
inDegrees=yes
endheader
time	PedalClip_calcn_r_Fx	PedalClip_calcn_r_Fy	PedalClip_calcn_r_Fz
0.51306802	-53.8778132695599	-134.238335013305	-0
0.5135076	-53.9498354250649	-134.086976126986	-0
0.51394719	-54.0210069882542	-133.935569080012	-0
0.51438677	-54.0913323297858	-133.784112762922	-0
0.51482635	-54.1608142844866	-133.63261145474	-0
0.51526593	-54.2294559068542	-133.48106384685	-0
0.51570551	-54.2972590436715	-133.329472343339	-0
0.5161451	-54.3642255860729	-133.177835353723	-0
0.51658468	-54.4303564822072	-133.026153941368	-0
0.51702426	-54.4956526696549	-132.874426260273	-0
0.51746384	-54.5601143783532	-132.7226524764	-0
0.51790343	-54.6237418469278	-132.570830657844	-0
0.51834301	-54.6865348148404	-132.418960490765	-0
0.51878259	-54.7484930629971	-132.267040155168	-0
0.51922217	-54.8096159978338	-132.11506910624	-0
0.51966176	-54.8699030189063	-131.96304559788	-0
0.52010134	-54.9293531974083	-131.810968809918	-0
0.52054092	-54.9879655880678	-131.658836971433	-0
0.5209805	-55.0457389929629	-131.506648994732	-0
0.52142008	-55.1026722064015	-131.354403000367	-0
0.52185967	-55.1587638421412	-131.202097520165	-0
0.52229925	-55.2140125344931	-131.049730281714	-0
0.52273883	-55.268416832337	-130.897298965196	-0
0.52317841	-55.3219753973106	-130.744799994705	-0
0.523618	-55.3746870166442	-130.592228532406	-0
0.52405758	-55.4265509460626	-130.439576380101	-0
0.52449716	-55.4775673833551	-130.286829201748	-0
0.52493674	-55.5277218075259	-130.134047749223	-0
0.52537633	-55.5769562774079	-129.981526965437	-0
0.52581591	-55.6252362696399	-129.829463304398	-0
0.52625549	-55.6725630983312	-129.67786801567	-0
0.52669507	-55.718924899294	-129.526834750012	-0
0.52713465	-55.7643043019322	-129.376466758786	-0
0.52757424	-55.8087283116152	-129.226635439533	-0
0.52801382	-55.8522634526912	-129.076977456595	-0
0.5284534	-55.8949947146925	-128.926993476701	-0
0.52889298	-55.9370081153316	-128.77615102408	-0
0.52933257	-55.9783786871251	-128.623968464913	-0
0.52977215	-56.0191493276214	-128.470153309815	-0
0.53021173	-56.0593015374199	-128.314785100788	-0
0.53065131	-56.0988124250751	-128.157979724364	-0
0.53109089	-56.1376873862809	-127.999669599656	-0
0.53153048	-56.1759314079365	-127.839769678981	-0
0.53197006	-56.2135033636888	-127.678456946014	-0
0.53240964	-56.2503529913333	-127.515975526975	-0
0.53284922	-56.2864612045633	-127.35239496308	-0
0.53328881	-56.3218641723426	-127.187430529892	-0
0.53372839	-56.356608528303	-127.020684162307	-0
0.53416797	-56.390673618296	-126.85207925299	-0
0.53460755	-56.4240078979057	-126.681731585475	-0
0.53504714	-56.4566006392847	-126.509510068577	-0
0.53558241	-56.4884675158822	-126.335123820566	-0
0.53611768	-56.5195770572989	-126.158603336293	-0
0.53654501	-56.5498957054836	-125.980025733488	-0
0.53707303	-56.5793984827536	-125.799439081269	-0
0.53760106	-56.60803312158	-125.61717345551	-0
0.53812908	-56.6357254944099	-125.433826135479	-0
0.53857601	-56.6623575007743	-125.25036380073	-0
0.53902293	-56.6878169739493	-125.067617067873	-0
0.53946986	-56.712026274299	-124.886068191896	-0
0.53991679	-56.7349332743073	-124.706053351708	-0
0.54036372	-56.7564885249026	-124.527960673236	-0
0.54090357	-56.7766408976716	-124.352124079332	-0
0.54144343	-56.7953616419159	-124.178688097806	-0
0.54189851	-56.8126516895534	-124.007707369526	-0
0.5423536	-56.8285349979159	-123.839243367587	-0
0.54290985	-56.8430281426101	-123.673444304382	-0
0.54346611	-56.8561803415538	-123.510267902215	-0
0.54402236	-56.8680567020375	-123.349546627083	-0
0.54445552	-56.8786815787725	-123.191338220435	-0
0.5450178	-56.8880871843681	-123.035601690302	-0
0.54539636	-56.8963448865632	-122.881976807132	-0
0.54577493	-56.9035269854824	-122.729988573657	-0
0.54592697	-56.9096302055031	-122.579605871537	-0
0.54627769	-56.9146275624731	-122.43085665203	-0
0.54672505	-56.918520381557	-122.283569524139	-0
0.54717242	-56.9213393811768	-122.137442436479	-0
0.54739925	-56.9231172618671	-121.992218440133	-0
0.54807084	-56.9238750097415	-121.847651540993	-0
0.54843381	-56.9236726835505	-121.703298265677	-0
0.54888217	-56.9226228782996	-121.558506846331	-0
0.54933052	-56.9208276774902	-121.412694263739	-0
0.54951013	-56.9183615990004	-121.265355150521	-0
0.54997119	-56.9152864139705	-121.116124083869	-0
0.55042997	-56.911614512977	-120.965041742169	-0
0.55088874	-56.9073084802015	-120.812427668405	-0
0.55105704	-56.9023359974041	-120.658480475211	-0
0.55156057	-56.8966988771186	-120.50326343008	-0
0.55211048	-56.8904138993202	-120.346851653507	-0
0.55266039	-56.8834423103213	-120.189706457638	-0
0.55298498	-56.8757228038217	-120.032414721164	-0
0.55347687	-56.8672439193016	-119.875307693932	-0
0.55396875	-56.8580485124843	-119.718349012727	-0
0.55413168	-56.8481568153162	-119.561522949741	-0
0.55459185	-56.8375552173407	-119.404794296881	-0
0.55504029	-56.8261960779826	-119.248262290094	-0
0.55548873	-56.8140143437112	-119.092202228985	-0
0.55565893	-56.8009940760729	-118.93688428932	-0
0.55612565	-56.7871951493764	-118.782139128605	-0
0.55657568	-56.7726580247667	-118.627749731246	-0
